# xmcd
#
# Track frame offsets: 
#        150
#        25165
#        45910
#        70555
#        89442
#        122904
#        160622
#
# Disc length: 2424 seconds
#
# Revision: 1
# Processed by: cddbd v1.5.2PL0 Copyright (c) Steve Scherf et al.
# Submitted via: ExactAudioCopy v0.95b4
#
DISCID=4a097607
DTITLE=Johnny Lytle - Nice and Easy: The Soulful Vibes Of Johnny Lytle
DYEAR=1962
DGENRE=Jazz
TTITLE0=But Not For Me
TTITLE1=Soul Time
TTITLE2=That's All
TTITLE3=322-Wow!
TTITLE4=Coroner's Blues
TTITLE5=Nice And Easy
TTITLE6=Old Folks
EXTD=YEAR: 1962
EXTT0=
EXTT1=
EXTT2=
EXTT3=
EXTT4=
EXTT5=
EXTT6=
PLAYORDER=
